# xmcd
#
# Track frame offsets:
#	151
#	22683
#	52369
#	72452
#	101206
#	128119
#	158727
#	202742
#	227433
#	247540
#	261331
#	283510
#	317583
#
# Disc length: 4619 seconds
#
# Revision: 1
# Processed by: cddbd v1.5.2PL0 Copyright (c) Steve Scherf et al.
# Submitted via: MusicManager 7.3.0.0 
#
DISCID=aa12090d
DTITLE=Rory Galagher - Celtic Blues Explorer
DYEAR=1157
DGENRE=Rock
TTITLE0=Continental Op
TTITLE1=Tatoo'd Lady
TTITLE2=Don't Start Me Talkin'
TTITLE3=I Ain't No Saint
TTITLE4=Follow Me
TTITLE5=When My Baby She Left Me
TTITLE6=Off The Handle
TTITLE7=Out On The Western Plain
TTITLE8=Wanted Blues
TTITLE9=The Loop
TTITLE10=Shadowplay
TTITLE11=Messin' With The Kid
TTITLE12=Loanshark Blues
EXTD=
EXTT0=
EXTT1=
EXTT2=
EXTT3=
EXTT4=
EXTT5=
EXTT6=
EXTT7=
EXTT8=
EXTT9=
EXTT10=
EXTT11=
EXTT12=
PLAYORDER=
